<svg xmlns="http://www.w3.org/2000/svg" version="1.1" xmlns:xlink="http://www.w3.org/1999/xlink" xmlns:svgjs="http://svgjs.dev/svgjs" width="1500" height="1500" viewBox="0 0 1500 1500"><rect width="1500" height="1500" fill="#ffffff"></rect><g transform="matrix(0.6666666666666666,0,0,0.6666666666666666,249.39393939393938,479.9052560931397)"><svg viewBox="0 0 396 213" data-background-color="#0074d9" preserveAspectRatio="xMidYMid meet" height="806" width="1500" xmlns="http://www.w3.org/2000/svg" xmlns:xlink="http://www.w3.org/1999/xlink"><g id="tight-bounds" transform="matrix(1,0,0,1,0.2400000000000091,0.5660926529055672)"><svg viewBox="0 0 395.52 212.2487120378303" height="212.2487120378303" width="395.52"><g><svg viewBox="0 0 397.4975999999999 213.30995559801943" height="212.2487120378303" width="395.52"><g><rect width="397.4975999999999" height="6.533402207778366" x="0" y="117.22577438183663" fill="#000000" opacity="1" stroke-width="0" stroke="transparent" fill-opacity="1" class="rect-qz-0" data-fill-palette-color="secondary" rx="1%" id="qz-0" data-palette-color="#f6f6f6"></rect></g><g transform="matrix(1,0,0,1,0.9887999999999693,140.86232373039604)"><svg viewBox="0 0 395.52 72.4476318676234" height="72.4476318676234" width="395.52"><g id="textblocktransform"><svg viewBox="0 0 395.52 72.4476318676234" height="72.4476318676234" width="395.52" id="textblock"><g><svg viewBox="0 0 395.52 72.4476318676234" height="72.4476318676234" width="395.52"><g transform="matrix(1,0,0,1,0,0)"><svg width="395.52" viewBox="0.5083333333333334 -36.080434022211996 251.51166666666668 46.080434022211996" height="72.4476318676234" data-palette-color="#f6f6f6"><path d="M11.55-0.15L11.55-0.15Q11.25-0.25 10.33-0.45 9.4-0.65 8.72-0.9 8.05-1.15 7.18-1.63 6.3-2.1 5.6-2.93 4.9-3.75 4.4-4.9L4.4-4.9Q3.85-6.25 3.7-10.2L3.7-10.2Q3.55-13.25 3.65-18.05L3.65-18.05Q3.65-18.95 3.7-21.05L3.7-21.05 3.3-21Q2.25-20.9 1.45-21.55 0.65-22.2 0.53-23.23 0.4-24.25 1.05-25.05 1.7-25.85 2.7-26L2.7-26 3.85-26.1Q3.9-28.75 4-31.45L4-31.45Q4.05-32.5 4.8-33.2 5.55-33.9 6.6-33.85 7.65-33.8 8.35-33.05 9.05-32.3 9-31.25L9-31.25 8.85-26.5 10.5-26.6Q11.55-26.65 12.33-26 13.1-25.35 13.18-24.3 13.25-23.25 12.6-22.48 11.95-21.7 10.9-21.6L10.9-21.6 8.7-21.5Q8.65-19.1 8.65-18L8.65-18Q8.55-13.3 8.7-10.35L8.7-10.35Q8.8-7.35 9-6.9 9.2-6.45 9.3-6.28 9.4-6.1 9.68-5.93 9.95-5.75 10.25-5.7 10.55-5.65 11.38-5.43 12.2-5.2 13.15-4.85L13.15-4.85Q14.1-4.55 14.58-3.63 15.05-2.7 14.73-1.73 14.4-0.75 13.48-0.28 12.55 0.2 11.55-0.15L11.55-0.15ZM21.25 0L21.25 0Q20.25 0 19.5-0.68 18.75-1.35 18.75-2.5L18.75-2.5 18.65-12.7Q18.6-16.15 18.6-21.3L18.6-21.3 18.6-24.25Q18.6-25.4 19.3-26.05 20-26.7 21-26.7L21-26.7Q22.05-26.7 22.82-26.03 23.6-25.35 23.6-24.15L23.6-24.15 23.6-22.65Q24.15-23.85 25.65-24.7L25.65-24.7Q27.7-25.95 30.15-25.95L30.15-25.95Q32-25.95 33-25.35 34-24.75 34-23.2L34-23.2Q34-22.2 33.4-21.53 32.8-20.85 31.65-20.85L31.65-20.85Q27.45-20.85 25.85-19.7L25.85-19.7Q24.95-19.1 24.27-18.25 23.6-17.4 23.6-16.6L23.6-16.6 23.7-10.35 23.75-2.5Q23.75-1.35 23-0.68 22.25 0 21.25 0L21.25 0ZM36.7-2.4L36.7-2.4Q36.6-6.15 36.72-13.9 36.85-21.65 36.85-24.05L36.85-24.05Q36.85-25.1 37.57-25.83 38.3-26.55 39.35-26.55 40.4-26.55 41.12-25.83 41.85-25.1 41.85-24.05L41.85-24.05Q41.85-21.65 41.72-13.95 41.6-6.25 41.7-2.5L41.7-2.5Q41.7-1.45 41-0.7 40.3 0.05 39.25 0.05 38.2 0.05 37.45-0.65 36.7-1.35 36.7-2.4L36.7-2.4ZM41.35-35.2L41.35-35.2Q42.2-34.35 42.2-33.1 42.2-31.85 41.35-31 40.5-30.15 39.25-30.15 38-30.15 37.15-31 36.3-31.85 36.3-33.1 36.3-34.35 37.15-35.2 38-36.05 39.27-36.08 40.55-36.1 41.35-35.2L41.35-35.2ZM53.34 7.55L53.34 7.55Q53.34 8.6 52.59 9.3 51.84 10 50.79 10 49.74 10 49.04 9.25 48.34 8.5 48.34 7.45L48.34 7.45Q48.54-2.4 48.54-24L48.54-24Q48.54-25.05 49.27-25.78 49.99-26.5 51.04-26.5L51.04-26.5Q51.79-26.5 52.42-25.83 53.04-25.15 53.34-24.15L53.34-24.15 54.04-24.6Q57.04-26.4 59.99-26.55 62.94-26.7 65.29-25.25L65.29-25.25Q67.49-24 69.02-21.75 70.54-19.5 71.24-16.85L71.24-16.85Q71.79-14.95 71.84-12.8 71.89-10.65 71.29-8.8 70.69-6.95 69.54-5.15 68.39-3.35 66.32-2 64.24-0.65 61.54-0.15L61.54-0.15Q56.89 0.7 53.49-1.75L53.49-1.75Q53.44 2.9 53.34 7.55L53.34 7.55ZM60.64-5.05L60.64-5.05Q64.44-5.75 65.97-8.68 67.49-11.6 66.44-15.55L66.44-15.55Q65.39-19.45 62.79-20.9L62.79-20.9Q60.14-22.45 56.64-20.3L56.64-20.3Q55.04-19.35 54.79-19.05L54.79-19.05Q54.64-18.9 54.54-18.78 54.44-18.65 54.19-18.2L54.19-18.2 53.54-17.3 53.54-9.1Q53.79-8.85 53.94-8.55L53.94-8.55Q55.34-6.35 56.89-5.5 58.44-4.65 60.64-5.05L60.64-5.05ZM104.74-0.8L104.74-0.8Q102.94-0.1 100.66 0 98.39 0.1 96.44-0.53 94.49-1.15 92.99-2.45L92.99-2.45Q90.39-4.6 89.64-7.8 88.89-11 89.59-13.55 90.29-16.1 91.71-18.53 93.14-20.95 94.81-22.63 96.49-24.3 98.69-25.45 100.89-26.6 103.29-26.58 105.69-26.55 108.34-25.25L108.34-25.25Q108.74-25.05 109.21-24.65 109.69-24.25 110.04-23.95L110.04-23.95 110.69-23.3Q110.99-23 110.99-22.95L110.99-22.95Q111.79-22.25 111.84-21.15L111.84-21.15Q112.49-18.15 112.69-14.85 112.89-11.55 112.81-8.65 112.74-5.75 112.89-2.5L112.89-2.5Q112.94-1.5 112.24-0.75 111.54 0 110.49 0.05 109.44 0.1 108.69-0.6 107.94-1.3 107.89-2.3L107.89-2.3 107.89-3.05Q106.39-1.5 104.74-0.8L104.74-0.8ZM102.49-5.3L102.49-5.3Q103.24-5.5 103.69-5.7 104.14-5.9 104.81-6.3 105.49-6.7 106.24-7.3 106.99-7.9 107.59-8.8L107.59-8.8Q107.69-8.9 107.84-9L107.84-9Q107.84-15.75 106.99-19.85L106.99-19.85Q106.84-20.05 106.66-20.23 106.49-20.4 106.41-20.5 106.34-20.6 106.21-20.68 106.09-20.75 105.94-20.85L105.94-20.85Q103.54-22.15 100.89-20.93 98.24-19.7 96.24-16.35L96.24-16.35Q94.24-12.95 94.26-10.43 94.29-7.9 96.19-6.25L96.19-6.25Q97.34-5.3 99.04-5.05 100.74-4.8 102.49-5.3L102.49-5.3ZM138.78 0L138.78 0Q137.99 0 137.34-0.45 136.69-0.9 136.44-2.15L136.44-2.15Q134.28-0.6 131.94-0.15L131.94-0.15Q128.69 0.45 125.99-0.5 123.29-1.45 121.44-3.65L121.44-3.65Q118.09-7.55 118.14-13.55L118.14-13.55Q118.19-18.95 121.64-22.85L121.64-22.85Q125.79-27.5 132.53-26.3L132.53-26.3Q134.84-25.9 136.03-25.25L136.03-25.25 135.94-33.25Q135.94-34.3 136.66-35.05 137.38-35.8 138.41-35.8 139.44-35.8 140.19-35.08 140.94-34.35 140.94-33.35L140.94-33.35Q141.28-10.55 141.28-2.5L141.28-2.5Q141.28-1.45 140.56-0.73 139.84 0 138.78 0L138.78 0ZM131.03-5.05L131.03-5.05Q131.99-5.25 133.03-5.75 134.09-6.25 134.51-6.58 134.94-6.9 135.16-7.15 135.38-7.4 135.69-7.73 135.99-8.05 136.24-8.75L136.24-8.75Q136.24-15.1 136.13-18.85L136.13-18.85Q136.09-18.85 136.03-18.9L136.03-18.9Q133.94-20.7 133.94-20.75L133.94-20.75Q133.38-21.1 131.63-21.4L131.63-21.4Q127.64-22.1 125.39-19.5L125.39-19.5Q123.14-17.05 123.14-13.55L123.14-13.55Q123.09-9.4 125.23-6.88 127.39-4.35 131.03-5.05L131.03-5.05ZM155.88 0L155.88 0Q154.93 0.05 154.18-0.5L154.18-0.5Q153.93-0.7 153.73-0.95L153.73-0.95Q153.53-1.15 153.38-1.4L153.38-1.4 152.98-2.1Q152.68-2.7 152.23-3.75L152.23-3.75 151.23-6Q150.43-7.95 147.76-14.93 145.08-21.9 144.58-23.15L144.58-23.15Q144.23-24.1 144.66-25.05 145.08-26 146.03-26.38 146.98-26.75 147.93-26.33 148.88-25.9 149.28-24.95L149.28-24.95Q149.68-23.85 152.41-16.75 155.13-9.65 155.83-7.9L155.83-7.9 156.03-7.45Q156.23-7.8 156.38-8.18 156.53-8.55 156.63-8.78 156.73-9 156.78-9.2L156.78-9.2 156.88-9.4Q157.23-10.2 159.56-16.2 161.88-22.2 163.53-25.2L163.53-25.2Q164.03-26.1 165.03-26.4 166.03-26.7 166.93-26.2 167.83-25.7 168.13-24.7 168.43-23.7 167.93-22.8L167.93-22.8Q166.33-19.9 164.26-14.5 162.18-9.1 161.48-7.4L161.48-7.4 160.08-4.35Q159.38-2.95 158.78-2.05L158.78-2.05Q158.33-1.4 157.88-1L157.88-1Q156.98-0.1 155.88 0L155.88 0ZM171.83-2.4L171.83-2.4Q171.73-6.15 171.85-13.9 171.98-21.65 171.98-24.05L171.98-24.05Q171.98-25.1 172.71-25.83 173.43-26.55 174.48-26.55 175.53-26.55 176.25-25.83 176.98-25.1 176.98-24.05L176.98-24.05Q176.98-21.65 176.85-13.95 176.73-6.25 176.83-2.5L176.83-2.5Q176.83-1.45 176.13-0.7 175.43 0.05 174.38 0.05 173.33 0.05 172.58-0.65 171.83-1.35 171.83-2.4L171.83-2.4ZM176.48-35.2L176.48-35.2Q177.33-34.35 177.33-33.1 177.33-31.85 176.48-31 175.63-30.15 174.38-30.15 173.13-30.15 172.28-31 171.43-31.85 171.43-33.1 171.43-34.35 172.28-35.2 173.13-36.05 174.41-36.08 175.68-36.1 176.48-35.2L176.48-35.2ZM188.83 0L188.83 0Q185.13-0.65 183.48-3L183.48-3Q182.68-4.05 182.33-5.8L182.33-5.8 182.13-6.9Q182.03-7.4 181.93-7.7L181.93-7.7Q181.63-8.65 182.13-9.55 182.63-10.45 183.63-10.7 184.63-10.95 185.53-10.5 186.43-10.05 186.73-9.05L186.73-9.05Q186.88-8.5 187.03-7.8L187.03-7.8Q187.08-7.55 187.1-7.33 187.13-7.1 187.28-6.55L187.28-6.55Q187.43-5.9 187.98-5.45L187.98-5.45Q188.58-4.9 189.78-4.75L189.78-4.75Q191.78-4.35 194.08-4.85L194.08-4.85Q196.33-5.35 197.58-6.3L197.58-6.3Q198.48-7.1 198.33-7.95L198.33-7.95Q198.18-9.35 196.58-10.05L196.58-10.05Q195.58-10.5 191.38-11.25L191.38-11.25Q187.03-12.1 185.23-13.45L185.23-13.45Q181.93-15.9 183.08-20.75L183.08-20.75Q183.78-23.55 185.95-24.88 188.13-26.2 190.78-26.35L190.78-26.35Q193.03-26.45 195.35-25.83 197.68-25.2 199.33-24.1L199.33-24.1Q199.88-23.7 200.48-23.15 201.08-22.6 201.65-21.95 202.23-21.3 202.33-21.25L202.33-21.25Q203.08-20.5 203.08-19.53 203.08-18.55 202.35-17.82 201.63-17.1 200.6-17.1 199.58-17.1 198.83-17.8L198.83-17.8Q198.33-18.25 197.83-18.75L197.83-18.75 197.13-19.6Q196.83-19.85 196.43-20.1L196.43-20.1Q195.48-20.7 193.98-21.13 192.48-21.55 191.03-21.5L191.03-21.5Q188.38-21.35 187.98-19.65L187.98-19.65Q187.53-17.85 188.28-17.3L188.28-17.3Q189.18-16.65 192.33-16L192.33-16Q196.98-15.2 198.68-14.45L198.68-14.45Q202.78-12.6 203.33-8.5L203.33-8.5Q203.78-5.15 200.83-2.7L200.83-2.7Q198.58-0.85 195.13-0.15L195.13-0.15Q191.83 0.6 188.83 0L188.83 0ZM221.82-0.35L221.82-0.35Q215.22 1.25 211.28-3L211.28-3Q208.13-6.25 207.38-11.35L207.38-11.35Q206.82-15.35 208.32-18.95L208.32-18.95Q210.13-23.55 214.03-25.75L214.03-25.75Q214.82-26.2 216.03-26.4L216.03-26.4Q216.07-26.4 216.72-26.45L216.72-26.45Q216.97-26.5 217.13-26.55L217.13-26.55Q217.88-26.7 218.63-26.4L218.63-26.4Q218.82-26.4 219.57-26.38 220.32-26.35 220.57-26.33 220.82-26.3 221.45-26.23 222.07-26.15 222.47-26.05L222.47-26.05 223.42-25.7Q224.03-25.5 224.57-25.2 225.13-24.9 225.78-24.5L225.78-24.5Q229.03-22.3 230.28-18.32 231.53-14.35 230.93-11.9L230.93-11.9Q230.47-9.2 229.32-6.88 228.18-4.55 226.15-2.75 224.13-0.95 221.82-0.35L221.82-0.35ZM220.28-5.55L220.28-5.55Q222.42-5.85 223.95-7.78 225.47-9.7 225.95-11.85 226.43-14 225.6-16.57 224.78-19.15 222.97-20.3L222.97-20.3Q222.42-20.7 222.07-20.88 221.72-21.05 221.25-21.18 220.78-21.3 220.5-21.3 220.22-21.3 219.32-21.35 218.42-21.4 217.72-21.45L217.72-21.45Q217.57-21.45 217.38-21.5L217.38-21.5Q216.82-21.45 216.78-21.45L216.78-21.45 216.42-21.35Q214.22-20.15 213.05-17.53 211.88-14.9 212.38-12.1L212.38-12.1Q212.92-8.7 214.82-6.95L214.82-6.95Q216.88-5.05 220.28-5.55L220.28-5.55ZM239.27 0L239.27 0Q238.27 0 237.52-0.68 236.77-1.35 236.77-2.5L236.77-2.5 236.67-12.7Q236.62-16.15 236.62-21.3L236.62-21.3 236.62-24.25Q236.62-25.4 237.32-26.05 238.02-26.7 239.02-26.7L239.02-26.7Q240.07-26.7 240.85-26.03 241.62-25.35 241.62-24.15L241.62-24.15 241.62-22.65Q242.17-23.85 243.67-24.7L243.67-24.7Q245.72-25.95 248.17-25.95L248.17-25.95Q250.02-25.95 251.02-25.35 252.02-24.75 252.02-23.2L252.02-23.2Q252.02-22.2 251.42-21.53 250.82-20.85 249.67-20.85L249.67-20.85Q245.47-20.85 243.87-19.7L243.87-19.7Q242.97-19.1 242.3-18.25 241.62-17.4 241.62-16.6L241.62-16.6 241.72-10.35 241.77-2.5Q241.77-1.35 241.02-0.68 240.27 0 239.27 0L239.27 0Z" opacity="1" transform="matrix(1,0,0,1,0,0)" fill="#000000" class="wordmark-text-0" data-fill-palette-color="primary" id="text-0"></path></svg></g></svg></g></svg></g></svg></g><g transform="matrix(1,0,0,1,166.91007910259458,0)"><svg viewBox="0 0 63.67744179481077 100.12262724105557" height="100.12262724105557" width="63.67744179481077"><g><svg xmlns="http://www.w3.org/2000/svg" viewBox="7.99999994725997 2 10.000000052740031 21" x="8" y="0" height="100.12262724105557" width="47.67744179481077" class="icon-icon-0" data-fill-palette-color="accent" id="icon-0"><g fill="#f6f6f6" data-fill-palette-color="accent"><path d="M17 21.5A1.5 1.5 0 1 1 15.5 20 1.5 1.5 0 0 1 17 21.5ZM8 7.5v13a0.5 0.5 0 0 0 0.5 0.5H9v1.5a0.5 0.5 0 0 0 1 0V5.05A2.5 2.5 0 0 0 8 7.5Zm10-5a0.5 0.5 0 0 1-0.5 0.5H17V19.51A2.49 2.49 0 0 0 13.05 21H11V4.5a1.5 1.5 0 0 1 3 0V5h2V3h-0.5a0.5 0.5 0 0 1 0-1h2A0.5 0.5 0 0 1 18 2.5ZM12 5h1V4.5a0.5 0.5 0 0 0-1 0Z" fill="#000000" data-fill-palette-color="accent"></path></g></svg></g></svg></g><g><rect width="90.37695910259461" height="6.533402207778366" y="92.5892250332772" x="230.58752089740534" fill="#000000" data-fill-palette-color="secondary"></rect><rect width="90.37695910259461" height="6.533402207778366" y="92.5892250332772" x="76.53311999999997" fill="#000000" data-fill-palette-color="secondary"></rect></g></svg></g><defs></defs></svg><rect width="395.52" height="212.2487120378303" fill="none" stroke="none" visibility="hidden"></rect></g></svg></g></svg>